<svg xmlns="http://www.w3.org/2000/svg" viewBox="0 0 180 180" fill="none">
  <rect width="180" height="180" rx="36" fill="#2563eb"/>
  <g fill="white">
    <!-- Calculator body -->
    <rect x="40" y="30" width="100" height="120" rx="10" fill="white"/>
    <!-- Screen -->
    <rect x="50" y="40" width="80" height="28" rx="5" fill="#1e40af"/>
    <!-- Buttons row 1 -->
    <rect x="50" y="78" width="17" height="17" rx="3"/>
    <rect x="72" y="78" width="17" height="17" rx="3"/>
    <rect x="94" y="78" width="17" height="17" rx="3"/>
    <rect x="116" y="78" width="17" height="17" rx="3" fill="#3b82f6"/>
    <!-- Buttons row 2 -->
    <rect x="50" y="100" width="17" height="17" rx="3"/>
    <rect x="72" y="100" width="17" height="17" rx="3"/>
    <rect x="94" y="100" width="17" height="17" rx="3"/>
    <rect x="116" y="100" width="17" height="17" rx="3" fill="#3b82f6"/>
    <!-- Buttons row 3 -->
    <rect x="50" y="122" width="17" height="17" rx="3"/>
    <rect x="72" y="122" width="17" height="17" rx="3"/>
    <rect x="94" y="122" width="17" height="17" rx="3"/>
    <rect x="116" y="122" width="17" height="17" rx="3" fill="#10b981"/>
  </g>
  <!-- Globe accent -->
  <circle cx="140" cy="40" r="22" fill="#1e40af" stroke="white" stroke-width="2"/>
  <ellipse cx="140" cy="40" rx="22" ry="8" fill="none" stroke="white" stroke-width="1"/>
  <ellipse cx="140" cy="40" rx="8" ry="22" fill="none" stroke="white" stroke-width="1"/>
</svg>
