<svg xmlns="http://www.w3.org/2000/svg" viewBox="0 0 512 512" fill="none">
  <rect width="512" height="512" rx="96" fill="#2563eb"/>
  <g fill="white">
    <!-- Calculator body -->
    <rect x="128" y="96" width="256" height="320" rx="24" fill="white"/>
    <!-- Screen -->
    <rect x="152" y="120" width="208" height="72" rx="12" fill="#1e40af"/>
    <!-- Buttons row 1 -->
    <rect x="152" y="216" width="44" height="44" rx="8"/>
    <rect x="206" y="216" width="44" height="44" rx="8"/>
    <rect x="260" y="216" width="44" height="44" rx="8"/>
    <rect x="314" y="216" width="44" height="44" rx="8" fill="#3b82f6"/>
    <!-- Buttons row 2 -->
    <rect x="152" y="270" width="44" height="44" rx="8"/>
    <rect x="206" y="270" width="44" height="44" rx="8"/>
    <rect x="260" y="270" width="44" height="44" rx="8"/>
    <rect x="314" y="270" width="44" height="44" rx="8" fill="#3b82f6"/>
    <!-- Buttons row 3 -->
    <rect x="152" y="324" width="44" height="44" rx="8"/>
    <rect x="206" y="324" width="44" height="44" rx="8"/>
    <rect x="260" y="324" width="44" height="44" rx="8"/>
    <rect x="314" y="324" width="98" height="44" rx="8" fill="#10b981"/>
  </g>
  <!-- Globe accent -->
  <circle cx="400" cy="112" r="56" fill="#1e40af" stroke="white" stroke-width="4"/>
  <ellipse cx="400" cy="112" rx="56" ry="20" fill="none" stroke="white" stroke-width="2"/>
  <ellipse cx="400" cy="112" rx="20" ry="56" fill="none" stroke="white" stroke-width="2"/>
  <line x1="344" y1="112" x2="456" y2="112" stroke="white" stroke-width="2"/>
</svg>
